<svg xmlns="http://www.w3.org/2000/svg" viewBox="0 0 1046 273">
  <path d="M 115.5 102.5 C 139.725 102.5 160.5 123.346 160.5 150.5 C 160.5 177.654 139.725 198.5 115.5 198.5 C 91.2754 198.5 70.5 177.654 70.5 150.5 C 70.5 123.346 91.2754 102.5 115.5 102.5 Z" fill="none" stroke="#000000" stroke-width="27" stroke-linecap="round" stroke-linejoin="round"/>
  <path d="M 57 148 L 82 148 L 82 256.261 L 57 256.261 Z" fill="#000000"/>
  <path d="M 82 256.261 L 57 272.5 L 57 255.66 L 57 238.819 L 82 256.261 Z" fill="#000000"/>
  <path d="M 237.5 102.5 C 261.725 102.5 282.5 123.347 282.5 150.5 C 282.5 177.654 261.725 198.5 237.5 198.5 C 213.275 198.5 192.5 177.654 192.5 150.5 C 192.5 123.347 213.275 102.5 237.5 102.5 Z" fill="none" stroke="#000000" stroke-width="27" stroke-linecap="round" stroke-linejoin="round"/>
  <path d="M 271 89.0005 L 296 89.0005 L 296 212.0005 L 271 212.0005 Z" fill="#000000"/>
  <path d="M 307 152 L 334 152 L 334 212 L 307 212 Z" fill="#000000"/>
  <path d="M 307 152 C 307 117.207 333.191 89.0005 365.5 89.0005 C 365.667 89.0005 365.833 89.0029 366 89.0044 L 366 116.008 C 365.833 116.005 365.667 116 365.5 116 C 350.195 116 334.499 129.759 334.012 150.984 L 334 152 L 307 152 Z" fill="#000000"/>
  <path d="M 424.5 102.5 C 448.725 102.5 469.5 123.347 469.5 150.5 C 469.5 177.654 448.725 198.5 424.5 198.5 C 400.275 198.5 379.5 177.654 379.5 150.5 C 379.5 123.347 400.275 102.5 424.5 102.5 Z" fill="none" stroke="#000000" stroke-width="27" stroke-linecap="round" stroke-linejoin="round"/>
  <path d="M 458 89.0005 L 483 89.0005 L 483 212.0005 L 458 212.0005 Z" fill="#000000"/>
  <path d="M 547.5 92.0005 C 565.823 92.0005 582.177 100.857 592.903 114.719 L 569.128 128.445 C 563.289 122.472 555.491 119 547.5 119 C 531.36 119 516 133.158 516 153.5 C 516 173.843 531.36 188 547.5 188 C 554.915 188 562.163 185.011 567.835 179.808 L 591.812 193.651 C 581.084 206.724 565.212 215 547.5 215 C 515.191 215 489 187.466 489 153.5 C 489 119.535 515.191 92.0005 547.5 92.0005 Z" fill="#000000"/>
  <path d="M 597 45.8784 L 622 45.8784 L 622 210.8784 L 597 210.8784 Z" fill="#000000"/>
  <path d="M 622 38.0005 L 622 50.5005 L 597 45.8784 L 622 38.0005 Z" fill="#000000"/>
  <path d="M 648.702 96.0005 C 675.533 96.0005 698.054 122.271 700.898 156 L 675.816 156 C 673.171 131.764 657.459 121 648.702 121 C 640.176 121 624.661 131.504 622.075 156 L 597 156 C 599.787 122.271 621.871 96.0005 648.702 96.0005 Z" fill="#000000"/>
  <path d="M 676 152 L 701 152 L 701 212 L 676 212 Z" fill="#000000"/>
  <path d="M 764.5 102.5 C 788.725 102.5 809.5 123.347 809.5 150.5 C 809.5 177.654 788.725 198.5 764.5 198.5 C 740.275 198.5 719.5 177.654 719.5 150.5 C 719.5 123.347 740.275 102.5 764.5 102.5 Z" fill="none" stroke="#000000" stroke-width="27" stroke-linecap="round" stroke-linejoin="round"/>
  <path d="M 828 152 L 855 152 L 855 212 L 828 212 Z" fill="#000000"/>
  <path d="M 828 152 C 828 117.207 854.191 89.0005 886.5 89.0005 C 886.667 89.0005 886.833 89.0029 887 89.0044 L 887 116.008 C 886.833 116.005 886.667 116 886.5 116 C 871.195 116 855.499 129.759 855.012 150.984 L 855 152 L 828 152 Z" fill="#000000"/>
  <path d="M 945.5 102.5 C 969.725 102.5 990.5 123.347 990.5 150.5 C 990.5 177.654 969.725 198.5 945.5 198.5 C 921.275 198.5 900.5 177.654 900.5 150.5 C 900.5 123.347 921.275 102.5 945.5 102.5 Z" fill="none" stroke="#000000" stroke-width="27" stroke-linecap="round" stroke-linejoin="round"/>
  <path d="M 945.5 102.5 C 969.725 102.5 990.5 123.347 990.5 150.5 C 990.5 177.654 969.725 198.5 945.5 198.5 C 921.275 198.5 900.5 177.654 900.5 150.5 C 900.5 123.347 921.275 102.5 945.5 102.5 Z" fill="none" stroke="#000000" stroke-width="27" stroke-linecap="round" stroke-linejoin="round"/>
  <path d="M 979.01 51.132 L 1004.01 51.132 L 1004.01 151.398 L 979.01 151.398 Z" fill="#000000"/>
  <path d="M 1039.72 33.8887 C 1042.39 35.348 1042.43 39.1612 1039.8 40.6846 L 984.893 72.4893 C 982.313 73.9831 979.08 72.1478 979.039 69.167 L 978.192 6.85254 C 978.152 3.86674 981.345 1.94449 983.965 3.37793 L 1039.72 33.8887 Z" fill="#000000"/>
  <path d="M 7.29194 100.001 C 7.32449 100.03 7.16169 101.377 6.90132 102.986 C 6.08765 108.341 5.46898 114.633 5.14351 121.363 C 4.16715 140.559 7.45444 156.098 14.3544 165.316 C 18.3253 170.612 26.072 175.44 40.8486 181.878 C 49.0502 185.448 52.3379 187.262 56.2109 190.334 L 58.8476 192.412 C 63.4041 257.673 63.3388 265.772 62.8837 266.359 C 62.5258 266.827 62.0696 267.002 61.1259 267.002 C 59.0103 267.002 58.8476 266.534 58.8476 260.477 L 57.1875 252.722 C 54.0629 247.923 51.0032 244.411 46.5117 240.373 C 41.6947 236.042 38.3425 233.818 32.6142 231.126 C 26.3002 228.112 22.6871 225.742 18.5537 221.821 C 8.39888 212.194 2.14945 198.528 0.261671 181.761 C -0.226521 177.518 0.0335781 163.501 0.684523 158.994 C 1.0425 156.39 1.07508 155.512 0.684523 153.288 C 0.0336106 149.542 -0.226209 135.731 0.229445 130.902 C 1.01061 122.738 3.06059 113.081 5.8271 104.215 C 6.57471 101.848 7.22547 99.9476 7.29194 100.001 Z M 5.66499 172.338 C 6.28338 178.015 7.8456 184.628 9.53804 188.871 C 12.4673 196.187 16.0803 200.635 22.3945 204.673 C 27.8298 208.184 31.7356 210.145 44.2011 215.588 C 46.6096 216.641 49.7671 218.222 51.1992 219.07 C 52.6312 219.89 54.9417 221.587 56.3085 222.757 L 58.8476 224.952 C 58.8475 223.372 58.2943 222.143 57.3505 220.651 C 51.492 211.433 42.7362 203.649 33.1347 199.113 C 30.9543 198.089 28.1881 196.656 26.9511 195.924 C 18.4889 190.891 11.8166 183.341 6.5439 172.777 L 5.43648 170.582 L 5.66499 172.338 Z" fill="#000000"/>
  <path d="M 59 260.805 L 59 242.676 M 59 203.856 L 59 224.803" fill="none" stroke="#000000" stroke-width="0.2" stroke-linecap="round" stroke-linejoin="round"/>
</svg>
